<svg width="149" height="149" viewBox="0 0 149 149" fill="none" xmlns="http://www.w3.org/2000/svg">
<rect width="149" height="149" fill="white"/>
<path d="M63.4963 68.0535H72.1438L67.5713 60.7069L59.1793 73.9899H55.3599L65.5674 58.0342C66.0112 57.3895 66.7509 57 67.5713 57C68.3647 57 69.1044 57.3761 69.5348 58.0073L79.7826 73.9899H75.9632L74.1611 71.0217H65.406L63.4963 68.0535ZM103.17 71.0217V57.1612H99.9286V72.3782C99.9286 72.7946 100.09 73.1975 100.399 73.5064C100.709 73.8153 101.126 73.9899 101.583 73.9899H116.363L118.273 71.0217H103.17ZM49.5501 68.537C52.6971 68.537 55.2524 65.9986 55.2524 62.8558C55.2524 59.713 52.6971 57.1612 49.5501 57.1612H35.3712V73.9899H38.611V60.1294H49.3349C50.8412 60.1294 52.0516 61.3516 52.0516 62.8558C52.0516 64.3601 50.8412 65.5823 49.3349 65.5823L40.198 65.5688L49.8728 73.9899H54.5799L48.0708 68.537H49.5501ZM15.427 73.9899C10.7751 73.9899 7 70.2293 7 65.5823C7 60.9352 10.7751 57.1612 15.427 57.1612H25.2215C29.8748 57.1612 33.6471 60.9352 33.6471 65.5823C33.6471 70.2293 29.8748 73.9899 25.2215 73.9899H15.427ZM25.0037 71.0217C28.0176 71.0217 30.4585 68.5908 30.4585 65.5823C30.4585 62.5738 28.0176 60.1294 25.0037 60.1294H15.6435C12.631 60.1294 10.1886 62.5738 10.1886 65.5823C10.1886 68.5908 12.631 71.0217 15.6435 71.0217H25.0037ZM86.5472 73.9899C81.894 73.9899 78.115 70.2293 78.115 65.5823C78.115 60.9352 81.894 57.1612 86.5472 57.1612H98.1803L96.284 60.1294H86.7624C83.7499 60.1294 81.3023 62.5738 81.3023 65.5823C81.3023 68.5908 83.7499 71.0217 86.7624 71.0217H98.4492L96.5396 73.9899H86.5472ZM126.18 71.0217C123.692 71.0217 121.581 69.3563 120.935 67.0596H134.787L136.697 64.0914H120.935C121.581 61.8082 123.692 60.1294 126.18 60.1294H135.688L137.612 57.1612H125.965C121.312 57.1612 117.533 60.9352 117.533 65.5823C117.533 70.2293 121.312 73.9899 125.965 73.9899H135.957L137.867 71.0217H126.18Z" fill="#F80000"/>
<path d="M139.345 58.9472C139.345 58.1279 140.004 57.4698 140.824 57.4698C141.658 57.4698 142.317 58.1279 142.317 58.9472C142.317 59.7799 141.658 60.438 140.824 60.438C140.004 60.438 139.345 59.7799 139.345 58.9472ZM140.824 60.8544C141.873 60.8544 142.72 60.0082 142.72 58.9606C142.72 57.913 141.873 57.0669 140.824 57.0669C139.789 57.0669 138.941 57.913 138.941 58.9606C138.941 60.0082 139.789 60.8544 140.824 60.8544ZM140.649 57.8325C140.945 57.8325 141.066 57.8459 141.201 57.8996C141.577 58.0205 141.618 58.3562 141.618 58.4906C141.618 58.5174 141.618 58.5846 141.591 58.6651C141.577 58.7457 141.524 58.9069 141.335 59.0278C141.308 59.0412 141.295 59.0546 141.241 59.0815L141.725 59.9545H141.255L140.824 59.1487H140.528V59.9545H140.111V57.8325H140.649ZM140.797 58.7995C140.932 58.786 141.066 58.786 141.147 58.6651C141.187 58.6114 141.201 58.5577 141.201 58.4771C141.201 58.3697 141.133 58.2757 141.039 58.2219C140.945 58.1817 140.851 58.1817 140.649 58.1817H140.528V58.7995H140.797Z" fill="#F80000"/>
<path d="M48.6348 90.5747V91.4946H44.3691V90.5747H48.6348ZM44.5918 82.9634V91.4946H43.4609V82.9634H44.5918Z" fill="black"/>
<path d="M50.9434 85.1548V91.4946H49.8535V85.1548H50.9434ZM49.7715 83.4731C49.7715 83.2974 49.8242 83.1489 49.9297 83.0278C50.0391 82.9067 50.1992 82.8462 50.4102 82.8462C50.6172 82.8462 50.7754 82.9067 50.8848 83.0278C50.998 83.1489 51.0547 83.2974 51.0547 83.4731C51.0547 83.6411 50.998 83.7856 50.8848 83.9067C50.7754 84.0239 50.6172 84.0825 50.4102 84.0825C50.1992 84.0825 50.0391 84.0239 49.9297 83.9067C49.8242 83.7856 49.7715 83.6411 49.7715 83.4731Z" fill="black"/>
<path d="M55.3379 85.1548V85.9868H51.9102V85.1548H55.3379ZM53.0703 83.6138H54.1543V89.9243C54.1543 90.1392 54.1875 90.3013 54.2539 90.4106C54.3203 90.52 54.4062 90.5923 54.5117 90.6274C54.6172 90.6626 54.7305 90.6802 54.8516 90.6802C54.9414 90.6802 55.0352 90.6724 55.1328 90.6567C55.2344 90.6372 55.3105 90.6216 55.3613 90.6099L55.3672 91.4946C55.2812 91.522 55.168 91.5474 55.0273 91.5708C54.8906 91.5981 54.7246 91.6118 54.5293 91.6118C54.2637 91.6118 54.0195 91.5591 53.7969 91.4536C53.5742 91.3481 53.3965 91.1724 53.2637 90.9263C53.1348 90.6763 53.0703 90.3403 53.0703 89.9185V83.6138Z" fill="black"/>
<path d="M59.2402 91.6118C58.7988 91.6118 58.3984 91.5376 58.0391 91.3892C57.6836 91.2368 57.377 91.0239 57.1191 90.7505C56.8652 90.4771 56.6699 90.1528 56.5332 89.7778C56.3965 89.4028 56.3281 88.9927 56.3281 88.5474V88.3013C56.3281 87.7856 56.4043 87.3267 56.5566 86.9243C56.709 86.5181 56.916 86.1743 57.1777 85.8931C57.4395 85.6118 57.7363 85.3989 58.0684 85.2544C58.4004 85.1099 58.7441 85.0376 59.0996 85.0376C59.5527 85.0376 59.9434 85.1157 60.2715 85.272C60.6035 85.4282 60.875 85.647 61.0859 85.9282C61.2969 86.2056 61.4531 86.5337 61.5547 86.9126C61.6562 87.2876 61.707 87.6978 61.707 88.1431V88.6294H56.9727V87.7446H60.623V87.6626C60.6074 87.3813 60.5488 87.1079 60.4473 86.8423C60.3496 86.5767 60.1934 86.3579 59.9785 86.186C59.7637 86.0142 59.4707 85.9282 59.0996 85.9282C58.8535 85.9282 58.627 85.981 58.4199 86.0864C58.2129 86.188 58.0352 86.3403 57.8867 86.5435C57.7383 86.7466 57.623 86.9946 57.541 87.2876C57.459 87.5806 57.418 87.9185 57.418 88.3013V88.5474C57.418 88.8481 57.459 89.1313 57.541 89.397C57.627 89.6587 57.75 89.8892 57.9102 90.0884C58.0742 90.2876 58.2715 90.4438 58.502 90.5571C58.7363 90.6704 59.002 90.7271 59.2988 90.7271C59.6816 90.7271 60.0059 90.6489 60.2715 90.4927C60.5371 90.3364 60.7695 90.1274 60.9688 89.8657L61.625 90.3872C61.4883 90.5942 61.3145 90.7915 61.1035 90.979C60.8926 91.1665 60.6328 91.3188 60.3242 91.436C60.0195 91.5532 59.6582 91.6118 59.2402 91.6118Z" fill="black"/>
<path d="M68.8672 90.1997L71.3809 82.9634H72.6055L69.4473 91.4946H68.5742L68.8672 90.1997ZM66.5176 82.9634L69.0078 90.1997L69.3184 91.4946H68.4453L65.293 82.9634H66.5176Z" fill="black"/>
<path d="M75.9629 91.6118C75.5215 91.6118 75.1211 91.5376 74.7617 91.3892C74.4062 91.2368 74.0996 91.0239 73.8418 90.7505C73.5879 90.4771 73.3926 90.1528 73.2559 89.7778C73.1191 89.4028 73.0508 88.9927 73.0508 88.5474V88.3013C73.0508 87.7856 73.127 87.3267 73.2793 86.9243C73.4316 86.5181 73.6387 86.1743 73.9004 85.8931C74.1621 85.6118 74.459 85.3989 74.791 85.2544C75.123 85.1099 75.4668 85.0376 75.8223 85.0376C76.2754 85.0376 76.666 85.1157 76.9941 85.272C77.3262 85.4282 77.5977 85.647 77.8086 85.9282C78.0195 86.2056 78.1758 86.5337 78.2773 86.9126C78.3789 87.2876 78.4297 87.6978 78.4297 88.1431V88.6294H73.6953V87.7446H77.3457V87.6626C77.3301 87.3813 77.2715 87.1079 77.1699 86.8423C77.0723 86.5767 76.916 86.3579 76.7012 86.186C76.4863 86.0142 76.1934 85.9282 75.8223 85.9282C75.5762 85.9282 75.3496 85.981 75.1426 86.0864C74.9355 86.188 74.7578 86.3403 74.6094 86.5435C74.4609 86.7466 74.3457 86.9946 74.2637 87.2876C74.1816 87.5806 74.1406 87.9185 74.1406 88.3013V88.5474C74.1406 88.8481 74.1816 89.1313 74.2637 89.397C74.3496 89.6587 74.4727 89.8892 74.6328 90.0884C74.7969 90.2876 74.9941 90.4438 75.2246 90.5571C75.459 90.6704 75.7246 90.7271 76.0215 90.7271C76.4043 90.7271 76.7285 90.6489 76.9941 90.4927C77.2598 90.3364 77.4922 90.1274 77.6914 89.8657L78.3477 90.3872C78.2109 90.5942 78.0371 90.7915 77.8262 90.979C77.6152 91.1665 77.3555 91.3188 77.0469 91.436C76.7422 91.5532 76.3809 91.6118 75.9629 91.6118Z" fill="black"/>
<path d="M80.7793 86.1509V91.4946H79.6953V85.1548H80.75L80.7793 86.1509ZM82.7598 85.1196L82.7539 86.1274C82.6641 86.1079 82.5781 86.0962 82.4961 86.0923C82.418 86.0845 82.3281 86.0806 82.2266 86.0806C81.9766 86.0806 81.7559 86.1196 81.5645 86.1978C81.373 86.2759 81.2109 86.3853 81.0781 86.5259C80.9453 86.6665 80.8398 86.8345 80.7617 87.0298C80.6875 87.2212 80.6387 87.4321 80.6152 87.6626L80.3105 87.8384C80.3105 87.4556 80.3477 87.0962 80.4219 86.7603C80.5 86.4243 80.6191 86.1274 80.7793 85.8696C80.9395 85.6079 81.1426 85.4048 81.3887 85.2603C81.6387 85.1118 81.9355 85.0376 82.2793 85.0376C82.3574 85.0376 82.4473 85.0474 82.5488 85.0669C82.6504 85.0825 82.7207 85.1001 82.7598 85.1196Z" fill="black"/>
<path d="M87.4531 89.813C87.4531 89.6567 87.418 89.5122 87.3477 89.3794C87.2812 89.2427 87.1426 89.1196 86.9316 89.0103C86.7246 88.897 86.4121 88.7993 85.9941 88.7173C85.6426 88.6431 85.3242 88.5552 85.0391 88.4536C84.7578 88.3521 84.5176 88.229 84.3184 88.0845C84.123 87.9399 83.9727 87.77 83.8672 87.5747C83.7617 87.3794 83.709 87.1509 83.709 86.8892C83.709 86.6392 83.7637 86.4028 83.873 86.1802C83.9863 85.9575 84.1445 85.7603 84.3477 85.5884C84.5547 85.4165 84.8027 85.2817 85.0918 85.1841C85.3809 85.0864 85.7031 85.0376 86.0586 85.0376C86.5664 85.0376 87 85.1274 87.3594 85.3071C87.7188 85.4868 87.9941 85.7271 88.1855 86.0278C88.377 86.3247 88.4727 86.6548 88.4727 87.0181H87.3887C87.3887 86.8423 87.3359 86.6724 87.2305 86.5083C87.1289 86.3403 86.9785 86.2017 86.7793 86.0923C86.584 85.9829 86.3438 85.9282 86.0586 85.9282C85.7578 85.9282 85.5137 85.9751 85.3262 86.0688C85.1426 86.1587 85.0078 86.2739 84.9219 86.4146C84.8398 86.5552 84.7988 86.7036 84.7988 86.8599C84.7988 86.9771 84.8184 87.0825 84.8574 87.1763C84.9004 87.2661 84.9746 87.3501 85.0801 87.4282C85.1855 87.5024 85.334 87.5728 85.5254 87.6392C85.7168 87.7056 85.9609 87.772 86.2578 87.8384C86.7773 87.9556 87.2051 88.0962 87.541 88.2603C87.877 88.4243 88.127 88.6255 88.291 88.8638C88.4551 89.1021 88.5371 89.3911 88.5371 89.731C88.5371 90.0083 88.4785 90.2622 88.3613 90.4927C88.248 90.7231 88.082 90.9224 87.8633 91.0903C87.6484 91.2544 87.3906 91.3833 87.0898 91.4771C86.793 91.5669 86.459 91.6118 86.0879 91.6118C85.5293 91.6118 85.0566 91.5122 84.6699 91.313C84.2832 91.1138 83.9902 90.856 83.791 90.5396C83.5918 90.2231 83.4922 89.8892 83.4922 89.5376H84.582C84.5977 89.8345 84.6836 90.0708 84.8398 90.2466C84.9961 90.4185 85.1875 90.5415 85.4141 90.6157C85.6406 90.686 85.8652 90.7212 86.0879 90.7212C86.3848 90.7212 86.6328 90.6821 86.832 90.604C87.0352 90.5259 87.1895 90.4185 87.2949 90.2817C87.4004 90.145 87.4531 89.9888 87.4531 89.813Z" fill="black"/>
<path d="M91.1387 85.1548V91.4946H90.0488V85.1548H91.1387ZM89.9668 83.4731C89.9668 83.2974 90.0195 83.1489 90.125 83.0278C90.2344 82.9067 90.3945 82.8462 90.6055 82.8462C90.8125 82.8462 90.9707 82.9067 91.0801 83.0278C91.1934 83.1489 91.25 83.2974 91.25 83.4731C91.25 83.6411 91.1934 83.7856 91.0801 83.9067C90.9707 84.0239 90.8125 84.0825 90.6055 84.0825C90.3945 84.0825 90.2344 84.0239 90.125 83.9067C90.0195 83.7856 89.9668 83.6411 89.9668 83.4731Z" fill="black"/>
<path d="M92.5918 88.395V88.2603C92.5918 87.8032 92.6582 87.3794 92.791 86.9888C92.9238 86.5942 93.1152 86.2524 93.3652 85.9634C93.6152 85.6704 93.918 85.4438 94.2734 85.2837C94.6289 85.1196 95.0273 85.0376 95.4688 85.0376C95.9141 85.0376 96.3145 85.1196 96.6699 85.2837C97.0293 85.4438 97.334 85.6704 97.584 85.9634C97.8379 86.2524 98.0312 86.5942 98.1641 86.9888C98.2969 87.3794 98.3633 87.8032 98.3633 88.2603V88.395C98.3633 88.8521 98.2969 89.2759 98.1641 89.6665C98.0312 90.0571 97.8379 90.3989 97.584 90.6919C97.334 90.981 97.0312 91.2075 96.6758 91.3716C96.3242 91.5317 95.9258 91.6118 95.4805 91.6118C95.0352 91.6118 94.6348 91.5317 94.2793 91.3716C93.9238 91.2075 93.6191 90.981 93.3652 90.6919C93.1152 90.3989 92.9238 90.0571 92.791 89.6665C92.6582 89.2759 92.5918 88.8521 92.5918 88.395ZM93.6758 88.2603V88.395C93.6758 88.7114 93.7129 89.0103 93.7871 89.2915C93.8613 89.5688 93.9727 89.8149 94.1211 90.0298C94.2734 90.2446 94.4629 90.4146 94.6895 90.5396C94.916 90.6606 95.1797 90.7212 95.4805 90.7212C95.7773 90.7212 96.0371 90.6606 96.2598 90.5396C96.4863 90.4146 96.6738 90.2446 96.8223 90.0298C96.9707 89.8149 97.082 89.5688 97.1562 89.2915C97.2344 89.0103 97.2734 88.7114 97.2734 88.395V88.2603C97.2734 87.9478 97.2344 87.6528 97.1562 87.3755C97.082 87.0942 96.9688 86.8462 96.8164 86.6313C96.668 86.4126 96.4805 86.2407 96.2539 86.1157C96.0312 85.9907 95.7695 85.9282 95.4688 85.9282C95.1719 85.9282 94.9102 85.9907 94.6836 86.1157C94.4609 86.2407 94.2734 86.4126 94.1211 86.6313C93.9727 86.8462 93.8613 87.0942 93.7871 87.3755C93.7129 87.6528 93.6758 87.9478 93.6758 88.2603Z" fill="black"/>
<path d="M100.807 86.5083V91.4946H99.7227V85.1548H100.748L100.807 86.5083ZM100.549 88.0845L100.098 88.0669C100.102 87.6333 100.166 87.2329 100.291 86.8657C100.416 86.4946 100.592 86.1724 100.818 85.8989C101.045 85.6255 101.314 85.4146 101.627 85.2661C101.943 85.1138 102.293 85.0376 102.676 85.0376C102.988 85.0376 103.27 85.0806 103.52 85.1665C103.77 85.2485 103.982 85.3813 104.158 85.5649C104.338 85.7485 104.475 85.9868 104.568 86.2798C104.662 86.5688 104.709 86.9224 104.709 87.3403V91.4946H103.619V87.3286C103.619 86.9966 103.57 86.731 103.473 86.5317C103.375 86.3286 103.232 86.1821 103.045 86.0923C102.857 85.9985 102.627 85.9517 102.354 85.9517C102.084 85.9517 101.838 86.0083 101.615 86.1216C101.396 86.2349 101.207 86.3911 101.047 86.5903C100.891 86.7896 100.768 87.0181 100.678 87.2759C100.592 87.5298 100.549 87.7993 100.549 88.0845Z" fill="black"/>
</svg>
